{
	"asset":{
		"version":"2.0",
		"generator":"Created using the official Cinema 4D glTF Exporter 1.000x284978"
	},
	"scenes":[{
		"nodes":[0]
	}],
	"nodes":[{
		"name":"Null",
		"mesh":0
	}],
	"meshes":[{
		"name":"Null",
		"primitives":[{
			"attributes":{
				"POSITION":1,
				"NORMAL":2,
				"TEXCOORD_0":3
			},
			"indices":0
		}]
	}],
	"accessors":[{
		"bufferView":0,
		"type":"SCALAR",
		"componentType":5123,
		"count":21654,
		"byteOffset":0,
		"min":[0],
		"max":[10673]
	},
	{
		"bufferView":1,
		"type":"VEC3",
		"componentType":5126,
		"count":10674,
		"byteOffset":0,
		"min":[-8.098160743713379,
		0.017638888210058214,
		-0.20999999344348908],
		"max":[8.09805679321289,
		22.165241241455079,
		5.409999847412109]
	},
	{
		"bufferView":1,
		"type":"VEC3",
		"componentType":5126,
		"count":10674,
		"byteOffset":12,
		"min":[-1.0,
		-1.0,
		-1.0],
		"max":[1.0,
		1.0,
		1.0]
	},
	{
		"bufferView":1,
		"type":"VEC2",
		"componentType":5126,
		"count":10674,
		"byteOffset":24,
		"min":[0.0,
		0.0],
		"max":[1.0,
		1.0]
	}],
	"bufferViews":[{
		"buffer":0,
		"byteOffset":0,
		"byteLength":43308,
		"target":34963
	},
	{
		"buffer":0,
		"byteOffset":43308,
		"byteLength":341568,
		"target":34962,
		"byteStride":32
	}],
	"buffers":[{
		"uri":"data:application/octet-stream;base64,",
		"byteLength":384876
	}]
}