{
    "asset" : {
        "generator" : "Khronos glTF Blender I/O v3.3.32",
        "version" : "2.0"
    },
    "scene" : 0,
    "scenes" : [
        {
            "name" : "Scene",
            "nodes" : [
                0
            ]
        }
    ],
    "nodes" : [
        {
            "mesh" : 0,
            "name" : "Arch",
            "rotation" : [
                0.7071068286895752,
                0,
                0,
                0.7071067094802856
            ],
            "scale" : [
                0.009999999776482582,
                0.009999999776482582,
                0.009999999776482582
            ],
            "translation" : [
                0,
                0.10868455469608307,
                -0.025999998673796654
            ]
        }
    ],
    "meshes" : [
        {
            "name" : "Mesh",
            "primitives" : [
                {
                    "attributes" : {
                        "POSITION" : 0,
                        "NORMAL" : 1,
                        "TEXCOORD_0" : 2,
                        "TEXCOORD_1" : 3,
                        "TEXCOORD_2" : 4,
                        "TEXCOORD_3" : 5,
                        "TEXCOORD_4" : 6,
                        "TEXCOORD_5" : 7,
                        "TEXCOORD_6" : 8,
                        "TEXCOORD_7" : 9
                    },
                    "indices" : 10
                }
            ]
        }
    ],
    "accessors" : [
        {
            "bufferView" : 0,
            "componentType" : 5126,
            "count" : 10709,
            "max" : [
                8.126242637634277,
                2.809999942779541,
                10.850817680358887
            ],
            "min" : [
                -8.180342674255371,
                -2.809999942779541,
                -11.296786308288574
            ],
            "type" : "VEC3"
        },
        {
            "bufferView" : 1,
            "componentType" : 5126,
            "count" : 10709,
            "type" : "VEC3"
        },
        {
            "bufferView" : 2,
            "componentType" : 5126,
            "count" : 10709,
            "type" : "VEC2"
        },
        {
            "bufferView" : 3,
            "componentType" : 5126,
            "count" : 10709,
            "type" : "VEC2"
        },
        {
            "bufferView" : 4,
            "componentType" : 5126,
            "count" : 10709,
            "type" : "VEC2"
        },
        {
            "bufferView" : 5,
            "componentType" : 5126,
            "count" : 10709,
            "type" : "VEC2"
        },
        {
            "bufferView" : 6,
            "componentType" : 5126,
            "count" : 10709,
            "type" : "VEC2"
        },
        {
            "bufferView" : 7,
            "componentType" : 5126,
            "count" : 10709,
            "type" : "VEC2"
        },
        {
            "bufferView" : 8,
            "componentType" : 5126,
            "count" : 10709,
            "type" : "VEC2"
        },
        {
            "bufferView" : 9,
            "componentType" : 5126,
            "count" : 10709,
            "type" : "VEC2"
        },
        {
            "bufferView" : 10,
            "componentType" : 5123,
            "count" : 21654,
            "type" : "SCALAR"
        }
    ],
    "bufferViews" : [
        {
            "buffer" : 0,
            "byteLength" : 128508,
            "byteOffset" : 0,
            "target" : 34962
        },
        {
            "buffer" : 0,
            "byteLength" : 128508,
            "byteOffset" : 128508,
            "target" : 34962
        },
        {
            "buffer" : 0,
            "byteLength" : 85672,
            "byteOffset" : 257016,
            "target" : 34962
        },
        {
            "buffer" : 0,
            "byteLength" : 85672,
            "byteOffset" : 342688,
            "target" : 34962
        },
        {
            "buffer" : 0,
            "byteLength" : 85672,
            "byteOffset" : 428360,
            "target" : 34962
        },
        {
            "buffer" : 0,
            "byteLength" : 85672,
            "byteOffset" : 514032,
            "target" : 34962
        },
        {
            "buffer" : 0,
            "byteLength" : 85672,
            "byteOffset" : 599704,
            "target" : 34962
        },
        {
            "buffer" : 0,
            "byteLength" : 85672,
            "byteOffset" : 685376,
            "target" : 34962
        },
        {
            "buffer" : 0,
            "byteLength" : 85672,
            "byteOffset" : 771048,
            "target" : 34962
        },
        {
            "buffer" : 0,
            "byteLength" : 85672,
            "byteOffset" : 856720,
            "target" : 34962
        },
        {
            "buffer" : 0,
            "byteLength" : 43308,
            "byteOffset" : 942392,
            "target" : 34963
        }
    ],
    "buffers" : [
        {
            "byteLength" : 985700,
            "uri" : "data:application/octet-stream;base64,"
        }
    ]
}
